<svg id="Layer_1" data-name="Layer 1" xmlns="http://www.w3.org/2000/svg" viewBox="0 0 689.97 239.82"><defs><style>.cls-1{fill:#333e48;}.cls-2{fill:#6ec4e7;}.cls-3{fill:#8c8e90;}</style></defs><title>Artboard 1</title><path class="cls-1" d="M105,47.91A38.52,38.52,0,0,0,92.81,37.8a34.36,34.36,0,0,0-16.9-4.3,32.37,32.37,0,0,0-14.69,3.33q-6.65,3.32-6.65,11.08t7.34,10.95Q69.25,62,83.38,65.37a121.64,121.64,0,0,1,15.1,4.43,55.2,55.2,0,0,1,13.85,7.34,36.23,36.23,0,0,1,10.11,11.36q3.88,6.79,3.88,16.49,0,12.2-4.57,20.64a38.81,38.81,0,0,1-12.19,13.72A51.32,51.32,0,0,1,91.84,147a92.13,92.13,0,0,1-20.92,2.36,83.11,83.11,0,0,1-30.2-5.68,63.79,63.79,0,0,1-24.39-16.21l21.89-20.51a43.64,43.64,0,0,0,14.41,11.92,41.25,41.25,0,0,0,19.68,4.71,33.94,33.94,0,0,0,7.34-.83,25,25,0,0,0,6.93-2.63,14.34,14.34,0,0,0,5.13-4.85,13.68,13.68,0,0,0,1.94-7.48q0-8.32-7.62-11.92T63.16,88.65a109.38,109.38,0,0,1-14.55-4.29A47.39,47.39,0,0,1,36,77.42a32,32,0,0,1-8.87-10.67Q23.81,60.39,23.81,51q0-11.08,4.57-19.12A39.28,39.28,0,0,1,40.43,18.68a54.18,54.18,0,0,1,16.9-7.62,75.45,75.45,0,0,1,19.4-2.49,81.71,81.71,0,0,1,28.13,5q13.72,5,21.75,15.24Z"/><path class="cls-1" d="M136.6,78.39a70.31,70.31,0,0,1,5.68-28.68,67,67,0,0,1,15.38-22,67.77,67.77,0,0,1,23-14.13,82.59,82.59,0,0,1,56.53,0,67.79,67.79,0,0,1,23,14.13,67.09,67.09,0,0,1,15.38,22,70.39,70.39,0,0,1,5.68,28.68,71.37,71.37,0,0,1-5.68,28.82,68.24,68.24,0,0,1-15.38,22.31,70.15,70.15,0,0,1-23,14.55,78.48,78.48,0,0,1-56.53,0,70.13,70.13,0,0,1-23-14.55,68.1,68.1,0,0,1-15.38-22.31,71.29,71.29,0,0,1-5.68-28.82m33.81,0a53.12,53.12,0,0,0,2.36,15.52,42.58,42.58,0,0,0,7.07,13.86,36.89,36.89,0,0,0,11.92,10,40,40,0,0,0,34.36,0,37,37,0,0,0,11.92-10,42.75,42.75,0,0,0,7.06-13.86,53.22,53.22,0,0,0,2.36-15.52A51.91,51.91,0,0,0,245.09,63,43.09,43.09,0,0,0,238,49.3a35.59,35.59,0,0,0-11.92-9.84,41.32,41.32,0,0,0-34.36,0,35.47,35.47,0,0,0-11.92,9.84A42.91,42.91,0,0,0,172.76,63a51.81,51.81,0,0,0-2.36,15.38"/><path class="cls-1" d="M423.48,78.39a70.31,70.31,0,0,1,5.68-28.68,67,67,0,0,1,15.38-22,67.77,67.77,0,0,1,23-14.13,82.59,82.59,0,0,1,56.53,0,67.79,67.79,0,0,1,23,14.13,67.09,67.09,0,0,1,15.38,22,70.39,70.39,0,0,1,5.68,28.68,71.37,71.37,0,0,1-5.68,28.82,68.24,68.24,0,0,1-15.38,22.31,70.15,70.15,0,0,1-23,14.55,78.48,78.48,0,0,1-56.53,0,70.13,70.13,0,0,1-23-14.55,68.09,68.09,0,0,1-15.38-22.31,71.28,71.28,0,0,1-5.68-28.82m33.81,0a53.13,53.13,0,0,0,2.36,15.52,42.55,42.55,0,0,0,7.07,13.86,36.89,36.89,0,0,0,11.92,10,40,40,0,0,0,34.36,0,37,37,0,0,0,11.92-10A42.78,42.78,0,0,0,532,93.91a53.21,53.21,0,0,0,2.35-15.52A51.9,51.9,0,0,0,532,63a43.12,43.12,0,0,0-7.07-13.72A35.59,35.59,0,0,0,513,39.46a41.32,41.32,0,0,0-34.36,0,35.47,35.47,0,0,0-11.92,9.84A42.89,42.89,0,0,0,459.65,63a51.82,51.82,0,0,0-2.36,15.38"/><path class="cls-1" d="M660.47,47.91A38.52,38.52,0,0,0,648.27,37.8a34.35,34.35,0,0,0-16.9-4.3,32.37,32.37,0,0,0-14.69,3.33Q610,40.15,610,47.91t7.34,10.95q7.34,3.19,21.47,6.51A121.65,121.65,0,0,1,654,69.8a55.21,55.21,0,0,1,13.85,7.34,36.23,36.23,0,0,1,10.11,11.36Q681.8,95.3,681.8,105q0,12.2-4.57,20.64A38.81,38.81,0,0,1,665,139.36,51.32,51.32,0,0,1,647.3,147a92.13,92.13,0,0,1-20.92,2.36,83.1,83.1,0,0,1-30.2-5.68,63.79,63.79,0,0,1-24.39-16.21l21.89-20.51a43.64,43.64,0,0,0,14.41,11.92,41.25,41.25,0,0,0,19.68,4.71,33.93,33.93,0,0,0,7.34-.83A25,25,0,0,0,642,120.1a14.34,14.34,0,0,0,5.13-4.85,13.68,13.68,0,0,0,1.94-7.48q0-8.32-7.62-11.92t-22.86-7.21a109.42,109.42,0,0,1-14.55-4.29,47.39,47.39,0,0,1-12.61-6.93,32,32,0,0,1-8.87-10.67q-3.33-6.37-3.33-15.79,0-11.08,4.57-19.12A39.28,39.28,0,0,1,595.9,18.68a54.18,54.18,0,0,1,16.9-7.62,75.45,75.45,0,0,1,19.4-2.49,81.71,81.71,0,0,1,28.13,5q13.72,5,21.75,15.24Z"/><polygon class="cls-1" points="368.39 123.69 368.34 123.78 368.39 123.69 368.39 123.69"/><polygon class="cls-1" points="330.84 113 330.88 113.08 330.84 113 330.84 113"/><polygon class="cls-2" points="335.98 135.74 352.16 167.46 432.1 8.56 395.22 8.56 335.93 135.65 335.98 135.74"/><polygon class="cls-1" points="347.93 91.35 309.96 8.56 273.08 8.56 331.4 126.49 347.93 91.35"/><path class="cls-3" d="M85.3,224.12H79.63V193.75H85.3Z"/><path class="cls-3" d="M116.84,193.75v30.37h-2.9a2.56,2.56,0,0,1-1.12-.22,2.63,2.63,0,0,1-.87-.75L96.09,202.91q.13,1.39.13,2.56v18.65h-5V193.75h3a5.4,5.4,0,0,1,.62,0,1.38,1.38,0,0,1,.85.4,4.4,4.4,0,0,1,.42.47L112,215q-.06-.74-.1-1.45t0-1.32V193.75Z"/><path class="cls-3" d="M144,198.39h-9.16v25.73h-5.65V198.39H120v-4.64h24Z"/><path class="cls-3" d="M152.79,198.25v8.42h10.63V211H152.79v8.59h13.48v4.52H147.12V193.75h19.15v4.49Z"/><path class="cls-3" d="M188.22,219.46v4.66H170.43V193.75h5.65v25.7Z"/><path class="cls-3" d="M209.2,219.46v4.66H191.41V193.75h5.65v25.7Z"/><path class="cls-3" d="M218.06,224.12h-5.67V193.75h5.67Z"/><path class="cls-3" d="M249,208.89v12.29a16.09,16.09,0,0,1-4.92,2.49,19.3,19.3,0,0,1-5.6.79,18.67,18.67,0,0,1-6.73-1.16,15.05,15.05,0,0,1-5.15-3.21,14.07,14.07,0,0,1-3.29-4.91,16.48,16.48,0,0,1-1.15-6.24,17.14,17.14,0,0,1,1.11-6.28,13.83,13.83,0,0,1,8.13-8.11,18,18,0,0,1,6.55-1.13,19.17,19.17,0,0,1,3.45.29,17.55,17.55,0,0,1,3,.81,13,13,0,0,1,2.51,1.25,15,15,0,0,1,2.08,1.62l-1.62,2.56a1.54,1.54,0,0,1-1,.75,1.77,1.77,0,0,1-1.32-.3l-1.39-.8a9,9,0,0,0-1.54-.69,12.78,12.78,0,0,0-1.91-.48,14.07,14.07,0,0,0-2.45-.19,10.48,10.48,0,0,0-4.06.76,8.61,8.61,0,0,0-3.1,2.16,9.75,9.75,0,0,0-2,3.38,13.24,13.24,0,0,0-.69,4.41,13.53,13.53,0,0,0,.75,4.65,9.79,9.79,0,0,0,2.1,3.47,9,9,0,0,0,3.27,2.16,12.66,12.66,0,0,0,7.27.39,14.69,14.69,0,0,0,2.58-1v-5.5h-3.82a1.15,1.15,0,0,1-.85-.3,1,1,0,0,1-.3-.75v-3.19Z"/><path class="cls-3" d="M259.32,198.25v8.42h10.63V211H259.32v8.59H272.8v4.52H253.65V193.75H272.8v4.49Z"/><path class="cls-3" d="M302.56,193.75v30.37h-2.9a2.56,2.56,0,0,1-1.12-.22,2.63,2.63,0,0,1-.87-.75l-15.85-20.24q.13,1.39.13,2.56v18.65h-5V193.75h3a5.4,5.4,0,0,1,.62,0,1.38,1.38,0,0,1,.85.4,4.4,4.4,0,0,1,.42.47L297.73,215q-.06-.74-.1-1.45t0-1.32V193.75Z"/><path class="cls-3" d="M329.69,198.39h-9.16v25.73h-5.65V198.39h-9.16v-4.64h24Z"/><path class="cls-3" d="M361.78,217a1.13,1.13,0,0,1,.82.36l2.23,2.42a12.24,12.24,0,0,1-4.55,3.51,15.67,15.67,0,0,1-6.48,1.22,15.3,15.3,0,0,1-6.08-1.16,13.4,13.4,0,0,1-4.61-3.21,14.06,14.06,0,0,1-2.93-4.91,18.42,18.42,0,0,1-1-6.24,17.37,17.37,0,0,1,1.09-6.27,14.41,14.41,0,0,1,3.08-4.9,13.92,13.92,0,0,1,4.74-3.2,15.71,15.71,0,0,1,6.09-1.14,15,15,0,0,1,5.89,1.09,14,14,0,0,1,4.38,2.86L362.54,200a1.72,1.72,0,0,1-.43.44,1.22,1.22,0,0,1-.72.19,1.39,1.39,0,0,1-.65-.18q-.34-.18-.73-.44l-.92-.58a7.63,7.63,0,0,0-1.22-.58,10,10,0,0,0-1.61-.44,11.08,11.08,0,0,0-2.11-.18,9.37,9.37,0,0,0-3.73.72,8.1,8.1,0,0,0-2.91,2.1,9.67,9.67,0,0,0-1.89,3.36,14.08,14.08,0,0,0-.67,4.53,13.29,13.29,0,0,0,.72,4.56,10,10,0,0,0,2,3.36,8.38,8.38,0,0,0,2.92,2.09,9,9,0,0,0,3.61.72,15.73,15.73,0,0,0,2.09-.13,8.84,8.84,0,0,0,1.72-.4,7.62,7.62,0,0,0,1.49-.7,9.29,9.29,0,0,0,1.4-1.06,2,2,0,0,1,.44-.3A1.08,1.08,0,0,1,361.78,217Z"/><path class="cls-3" d="M396.18,208.94a17,17,0,0,1-1.1,6.18A14.51,14.51,0,0,1,392,220a14.16,14.16,0,0,1-4.85,3.24,17.54,17.54,0,0,1-12.58,0,14.28,14.28,0,0,1-4.86-3.24,14.56,14.56,0,0,1-3.14-4.92,17.74,17.74,0,0,1,0-12.37,14.56,14.56,0,0,1,3.14-4.92,14.28,14.28,0,0,1,4.86-3.25,16.37,16.37,0,0,1,6.28-1.17,17.07,17.07,0,0,1,4.35.54,15.27,15.27,0,0,1,3.74,1.51,13.82,13.82,0,0,1,3.06,2.37,14.44,14.44,0,0,1,2.3,3.12,15.29,15.29,0,0,1,1.44,3.74A17.82,17.82,0,0,1,396.18,208.94Zm-5.77,0a13.93,13.93,0,0,0-.67-4.48,9.63,9.63,0,0,0-1.91-3.37,8.19,8.19,0,0,0-3-2.12,11.25,11.25,0,0,0-8,0,8.28,8.28,0,0,0-3,2.12,9.51,9.51,0,0,0-1.92,3.37,15.27,15.27,0,0,0,0,9,9.4,9.4,0,0,0,1.92,3.36,8.32,8.32,0,0,0,3,2.11,11.25,11.25,0,0,0,8,0,8.24,8.24,0,0,0,3-2.11,9.51,9.51,0,0,0,1.91-3.36A13.92,13.92,0,0,0,390.41,208.94Z"/><path class="cls-3" d="M433.24,193.75v30.37h-5V204.51q0-1.18.13-2.54l-9.18,17.24a2.12,2.12,0,0,1-2,1.24h-.8a2.12,2.12,0,0,1-2-1.24l-9.28-17.3q.06.69.11,1.36t0,1.24v19.61h-5V193.75h4.26l.65,0a1.79,1.79,0,0,1,.49.11,1.07,1.07,0,0,1,.4.27,2.34,2.34,0,0,1,.35.5l9.09,16.86q.36.67.66,1.39t.6,1.47q.29-.78.61-1.5t.67-1.4l9-16.82a2.13,2.13,0,0,1,.36-.5,1.17,1.17,0,0,1,.41-.27,1.8,1.8,0,0,1,.49-.11l.65,0Z"/><path class="cls-3" d="M449,193.75a17.35,17.35,0,0,1,5.27.71,10.16,10.16,0,0,1,3.67,2,7.92,7.92,0,0,1,2.15,3.07,10.56,10.56,0,0,1,.7,3.91,10.8,10.8,0,0,1-.73,4,8.4,8.4,0,0,1-2.21,3.16,10.27,10.27,0,0,1-3.69,2.06,16.46,16.46,0,0,1-5.18.73h-4.22v10.69h-5.65V193.75ZM449,209a8.52,8.52,0,0,0,2.71-.39,5.16,5.16,0,0,0,1.92-1.11,4.52,4.52,0,0,0,1.14-1.76,6.76,6.76,0,0,0,.38-2.32,6.13,6.13,0,0,0-.38-2.21,4.35,4.35,0,0,0-1.13-1.68,5,5,0,0,0-1.91-1.06,9,9,0,0,0-2.73-.37h-4.22V209Z"/><path class="cls-3" d="M482.11,219.46v4.66H464.32V193.75H470v25.7Z"/><path class="cls-3" d="M491,224.12H485.3V193.75H491Z"/><path class="cls-3" d="M522.93,224.12h-4.37a1.86,1.86,0,0,1-1.2-.37,2.29,2.29,0,0,1-.69-.91l-2.27-6.2H501.83l-2.27,6.2a2,2,0,0,1-.65.88,1.82,1.82,0,0,1-1.2.4H493.3l11.95-30.37H511Zm-10-11.47-3.7-10.1q-.27-.67-.57-1.6t-.59-2q-.27,1.07-.57,2t-.57,1.63l-3.68,10.06Z"/><path class="cls-3" d="M550.84,193.75v30.37h-2.9a2.55,2.55,0,0,1-1.12-.22,2.63,2.63,0,0,1-.87-.75L530.1,202.91q.13,1.39.13,2.56v18.65h-5V193.75h3a5.41,5.41,0,0,1,.62,0,1.38,1.38,0,0,1,.85.4,4.29,4.29,0,0,1,.42.47L546,215q-.06-.74-.11-1.45t0-1.32V193.75Z"/><path class="cls-3" d="M577.62,217a1.13,1.13,0,0,1,.82.36l2.23,2.42a12.24,12.24,0,0,1-4.55,3.51,15.67,15.67,0,0,1-6.48,1.22,15.3,15.3,0,0,1-6.08-1.16,13.38,13.38,0,0,1-4.61-3.21,14.05,14.05,0,0,1-2.93-4.91,18.42,18.42,0,0,1-1-6.24,17.36,17.36,0,0,1,1.09-6.27,14.42,14.42,0,0,1,3.08-4.9,13.91,13.91,0,0,1,4.74-3.2,15.71,15.71,0,0,1,6.09-1.14,15,15,0,0,1,5.89,1.09,14,14,0,0,1,4.38,2.86L578.37,200a1.72,1.72,0,0,1-.43.44,1.22,1.22,0,0,1-.72.19,1.39,1.39,0,0,1-.65-.18q-.34-.18-.73-.44l-.92-.58a7.63,7.63,0,0,0-1.22-.58,10,10,0,0,0-1.61-.44,11.08,11.08,0,0,0-2.11-.18,9.37,9.37,0,0,0-3.73.72,8.1,8.1,0,0,0-2.91,2.1,9.66,9.66,0,0,0-1.89,3.36,14.08,14.08,0,0,0-.67,4.53,13.32,13.32,0,0,0,.72,4.56,10,10,0,0,0,2,3.36,8.39,8.39,0,0,0,2.92,2.09,9,9,0,0,0,3.61.72,15.73,15.73,0,0,0,2.09-.13,8.84,8.84,0,0,0,1.72-.4,7.62,7.62,0,0,0,1.49-.7,9.29,9.29,0,0,0,1.4-1.06,2,2,0,0,1,.44-.3A1.08,1.08,0,0,1,577.62,217Z"/><path class="cls-3" d="M589.38,198.25v8.42H600V211H589.38v8.59h13.48v4.52H583.71V193.75h19.15v4.49Z"/><path class="cls-3" d="M604.64,192.43h6.1v1.71h-2v5.67h-2.09v-5.67h-2Zm15.83,0v7.38h-1.84v-3.7l.13-1.17-1.86,3.66a.76.76,0,0,1-.72.45h-.29a.73.73,0,0,1-.71-.45l-1.86-3.67.13,1.19v3.7h-1.84v-7.38h1.8a1,1,0,0,1,.39.06.94.94,0,0,1,.29.26l1.59,3.12a6.72,6.72,0,0,1,.33.86c0-.14.09-.28.15-.43a4.13,4.13,0,0,1,.2-.43l1.63-3.12a.94.94,0,0,1,.29-.26,1,1,0,0,1,.38-.06Z"/></svg>